<svg width="596" height="209" viewBox="0 0 596 209" xmlns="http://www.w3.org/2000/svg"><title>KoP 2</title><desc>Created with Sketch.</desc><g fill="none"><path d="M45.1 97.3v2.3m188.6 0v-2.3m0 2.3H45.1m188.6-2.3H45.1m190.9 0v2.3m0 0h-2.3m0-2.3h2.3m128.2 2.3v-2.3m188.7 0v2.3m-188.7 0h188.7m-188.7-2.3h188.7m-190.9 0v2.3m0 0h2.2m0-2.3H362m193.1 2.3v-2.3m-2.2 2.3h2.2m0-2.3h-2.2M42.8 99.6v-2.3m2.3 2.3h-2.3m0-2.3h2.3m510-1.1v1.1M362 96.2h193.1M362 97.3V96.2m-319.2 0v1.1M236 96.2H42.8M236 97.3V96.2m94.9-10.8l-.1-1.1-.4-1-.6-.9-.8-.7-1-.5-1-.3h-1.1l-1.1.3-.9.5-.8.7-.7.9-.3 1-.2 1.1.2 1.1.3 1 .7.9.8.7.9.5 1.1.3h1.1l1-.3 1-.5.8-.7.6-.9.4-1 .1-1.1m0-18l-.1-1.1-.4-1-.6-.9-.8-.7-1-.5-1-.3h-1.1l-1.1.3-.9.5-.8.7-.7.9-.3 1-.2 1.1.2 1.1.3 1 .7.9.8.7.9.5 1.1.3h1.1l1-.3 1-.5.8-.7.6-.9.4-1 .1-1.1m0-18l-.1-1.1-.4-1-.6-.9-.8-.7-1-.5-1-.3h-1.1l-1.1.3-.9.5-.8.7-.7.9-.3 1-.2 1.1.2 1.1.3 1 .7.9.8.7.9.5 1.1.3h1.1l1-.3 1-.5.8-.7.6-.9.4-1 .1-1.1m-2.6 50.9l-.1-.7-.4-.5-.6-.4-.7-.2-.7.2-.6.4-.4.5-.1.7.1.7.4.6.6.4.7.1.7-.1.6-.4.4-.6.1-.7m-5-63l-.2-.7-.4-.5-.5-.4-.7-.2-.7.2-.6.4-.4.5-.1.7.1.7.4.6.6.4.7.1.7-.1.5-.4.4-.6.2-.7m3.7 0l-.1-.5-.3-.5-.4-.3-.6-.1-.5.1-.5.3-.3.5-.1.5.1.6.3.4.5.4.5.1.6-.1.4-.4.3-.4.1-.6m5 63l-.1-.5-.3-.5-.5-.3-.5-.1-.6.1-.5.3-.3.5-.1.5.1.6.3.4.5.4.6.1.5-.1.5-.4.3-.4.1-.6m8.8 8.4l-.2-.8-.3-.7-.6-.5-.8-.3-.7-.1-.8.2-.7.5-.5.6-.2.7v.8l.2.8.5.6.7.4.8.2h.7l.8-.3.6-.6.3-.7.2-.8m-34.6-73.2l.1-.7.4-.6.6-.4.7-.1.7.1.5.4.4.6.2.7-.2.6-.4.6-.5.4-.7.2-.7-.2-.6-.4-.4-.6-.1-.6m36 0l.1-.7.4-.6.6-.4.7-.1.7.1.5.4.4.6.2.7-.2.6-.4.6-.5.4-.7.2-.7-.2-.6-.4-.4-.6-.1-.6m18 0l.1-.7.4-.6.6-.4.7-.1.7.1.5.4.4.6.2.7-.2.6-.4.6-.5.4-.7.2-.7-.2-.6-.4-.4-.6-.1-.6m18 0l.1-.7.4-.6.6-.4.7-.1.7.1.5.4.4.6.2.7-.2.6-.4.6-.5.4-.7.2-.7-.2-.6-.4-.4-.6-.1-.6m18 0l.1-.7.4-.6.6-.4.7-.1.7.1.5.4.4.6.2.7-.2.6-.4.6-.5.4-.7.2-.7-.2-.6-.4-.4-.6-.1-.6m18 0l.1-.7.4-.6.6-.4.7-.1.7.1.5.4.4.6.2.7-.2.6-.4.6-.5.4-.7.2-.7-.2-.6-.4-.4-.6-.1-.6m18 0l.1-.7.4-.6.6-.4.7-.1.7.1.5.4.4.6.2.7-.2.6-.4.6-.5.4-.7.2-.7-.2-.6-.4-.4-.6-.1-.6m18 0l.1-.7.4-.6.6-.4.7-.1.7.1.5.4.4.6.2.7-.2.6-.4.6-.5.4-.7.2-.7-.2-.6-.4-.4-.6-.1-.6m18 0l.1-.7.4-.6.6-.4.7-.1.7.1.5.4.4.6.2.7-.2.6-.4.6-.5.4-.7.2-.7-.2-.6-.4-.4-.6-.1-.6m18 0l.1-.7.4-.6.6-.4.7-.1.7.1.5.4.4.6.2.7-.2.6-.4.6-.5.4-.7.2-.7-.2-.6-.4-.4-.6-.1-.6m18 0l.1-.7.4-.6.6-.4.7-.1.7.1.5.4.4.6.2.7-.2.6-.4.6-.5.4-.7.2-.7-.2-.6-.4-.4-.6-.1-.6m18 0l.1-.7.4-.6.6-.4.7-.1.7.1.5.4.4.6.2.7-.2.6-.4.6-.5.4-.7.2-.7-.2-.6-.4-.4-.6-.1-.6m18 0l.1-.7.4-.6.6-.4.7-.1.7.1.5.4.4.6.2.7-.2.6-.4.6-.5.4-.7.2-.7-.2-.6-.4-.4-.6-.1-.6m18 0l.1-.7.4-.6.6-.4.7-.1.7.1.5.4.4.6.2.7-.2.6-.4.6-.5.4-.7.2-.7-.2-.6-.4-.4-.6-.1-.6m18 0l.1-.7.4-.6.6-.4.7-.1.7.1.5.4.4.6.2.7-.2.6-.4.6-.5.4-.7.2-.7-.2-.6-.4-.4-.6-.1-.6m3.9 9l.1-.8.4-.7.6-.5.7-.3.8-.1.7.2.7.4.5.6.2.8v.8l-.2.7-.5.6-.7.4-.7.2h-.8l-.7-.4-.6-.5-.4-.7-.1-.7m0 31.5l.1-.8.4-.7.6-.5.7-.3.8-.1.7.2.7.4.5.6.2.8v.8l-.2.7-.5.6-.7.4-.7.2h-.8l-.7-.4-.6-.5-.4-.7-.1-.7m-81-31.5l.1-.8.4-.7.6-.5.7-.3.8-.1.7.2.7.4.5.6.2.8v.8l-.2.7-.5.6-.7.4-.7.2h-.8l-.7-.4-.6-.5-.4-.7-.1-.7m0 31.5l.1-.8.4-.7.6-.5.7-.3.8-.1.7.2.7.4.5.6.2.8v.8l-.2.7-.5.6-.7.4-.7.2h-.8l-.7-.4-.6-.5-.4-.7-.1-.7m-108-31.5l.1-.8.4-.7.6-.5.7-.3.8-.1.7.2.7.4.5.6.2.8v.8l-.2.7-.5.6-.7.4-.7.2h-.8l-.7-.4-.6-.5-.4-.7-.1-.7m0 31.5l.1-.8.4-.7.6-.5.7-.3.8-.1.7.2.7.4.5.6.2.8v.8l-.2.7-.5.6-.7.4-.7.2h-.8l-.7-.4-.6-.5-.4-.7-.1-.7m-40.5-22.5l.1-.8.4-.7.6-.5.7-.3.8-.1.7.2.7.4.5.6.2.8v.8l-.2.7-.5.6-.7.4-.7.2h-.8l-.7-.4-.6-.5-.4-.7-.1-.7m36 0l.1-.8.4-.7.6-.5.7-.3.8-.1.7.2.7.4.5.6.2.8v.8l-.2.7-.5.6-.7.4-.7.2h-.8l-.7-.4-.6-.5-.4-.7-.1-.7m36 0l.1-.8.4-.7.6-.5.7-.3.8-.1.7.2.7.4.5.6.2.8v.8l-.2.7-.5.6-.7.4-.7.2h-.8l-.7-.4-.6-.5-.4-.7-.1-.7m72 0l.1-.8.4-.7.6-.5.7-.3.8-.1.7.2.7.4.5.6.2.8v.8l-.2.7-.5.6-.7.4-.7.2h-.8l-.7-.4-.6-.5-.4-.7-.1-.7m-99 36l.1-.8.4-.7.6-.5.7-.3.8-.1.7.2.7.4.5.6.2.8v.8l-.2.7-.5.6-.7.4-.7.2h-.8l-.7-.4-.6-.5-.4-.7-.1-.7m171-36l.1-.8.4-.7.6-.5.7-.3.8-.1.7.2.7.4.5.6.2.8v.8l-.2.7-.5.6-.7.4-.7.2h-.8l-.7-.4-.6-.5-.4-.7-.1-.7m-99 36l.1-.8.4-.7.6-.5.7-.3.8-.1.7.2.7.4.5.6.2.8v.8l-.2.7-.5.6-.7.4-.7.2h-.8l-.7-.4-.6-.5-.4-.7-.1-.7m37.5-11.3v-.3l.2-.3.3-.2.4-.1.3.1.3.2.2.3.1.3-.1.4-.2.2-.3.2-.3.1-.4-.1-.3-.2-.2-.2v-.4M489.3 94l.1-.4.2-.3.3-.2h.7l.3.2.2.3v.7l-.2.3-.3.2-.4.1-.3-.1-.3-.2-.2-.3-.1-.3m-8.5 0v-.4l.2-.3.3-.2h.7l.3.2.2.3.1.4-.1.3-.2.3-.3.2-.3.1-.4-.1-.3-.2-.2-.3V94m7.9-9.2l.1-.9.4-.8.6-.8.7-.5.9-.3.9-.1 1 .2.8.4.7.7.4.8.3.9v.9l-.3.9-.4.8-.7.6-.8.4-1 .2h-.9l-.9-.3-.7-.6-.6-.7-.4-.9-.1-.9m16 0l.1-.9.3-.8.6-.8.8-.5.9-.3.9-.1.9.2.8.4.7.7.5.8.2.9v.9l-.2.9-.5.8-.7.6-.8.4-.9.2h-.9l-.9-.3-.8-.6-.6-.7-.3-.9-.1-.9m17.7 0l.1-.9.4-.8.6-.8.7-.5.9-.3.9-.1.9.2.9.4.6.7.5.8.3.9v.9l-.3.9-.5.8-.6.6-.9.4-.9.2h-.9l-.9-.3-.7-.6-.6-.7-.4-.9-.1-.9m-69.1 2.5l.1-.9.4-.8.6-.7.7-.6.9-.3.9-.1.9.2.9.5.6.6.5.8.3.9v.9l-.3.9-.5.8-.6.6-.9.5-.9.1h-.9l-.9-.3-.7-.6-.6-.7-.4-.8-.1-1m-19.5 0l.1-.9.4-.8.6-.7.7-.6.9-.3.9-.1.9.2.9.5.6.6.5.8.3.9v.9l-.3.9-.5.8-.6.6-.9.5-.9.1h-.9l-.9-.3-.7-.6-.6-.7-.4-.8-.1-1m-23.1 0l.2-.9.3-.8.6-.7.8-.6.9-.3.9-.1.9.2.8.5.7.6.5.8.2.9v.9l-.2.9-.5.8-.7.6-.8.5-.9.1h-.9l-.9-.3-.8-.6-.6-.7-.3-.8-.2-1m-37.9-.3l.1-.8.4-.6.6-.6.7-.3h.8l.7.1.7.5.5.6.2.7v.8l-.2.7-.5.7-.7.4-.7.2-.8-.1-.7-.3-.6-.5-.4-.7-.1-.8m54.9-42.5l.1-.7.4-.6.6-.4.7-.1.7.1.5.4.4.6.2.7-.2.7-.4.5-.5.4-.7.2-.7-.2-.6-.4-.4-.5-.1-.7m0 45l.1-.7.4-.6.6-.4.7-.1.7.1.5.4.4.6.2.7-.2.7-.4.5-.5.4-.7.2-.7-.2-.6-.4-.4-.5-.1-.7m90 0l.1-.7.4-.6.6-.4.7-.1.7.1.5.4.4.6.2.7-.2.7-.4.5-.5.4-.7.2-.7-.2-.6-.4-.4-.5-.1-.7m0-45l.1-.7.4-.6.6-.4.7-.1.7.1.5.4.4.6.2.7-.2.7-.4.5-.5.4-.7.2-.7-.2-.6-.4-.4-.5-.1-.7M493.3 67l.1-1.2.4-1.2.6-1 .8-.9 1-.7 1.2-.5 1.2-.2 1.2.1 1.2.3 1 .6 1 .8.7 1 .5 1.1.3 1.2v1.2l-.3 1.2-.5 1.1-.7.9-1 .8-1 .6-1.2.3-1.2.1-1.2-.2-1.2-.5-1-.7-.8-.8-.6-1.1-.4-1.1-.1-1.2m91.4-36l2.3 2.2m0 0v45m0 0l-18 18m-214.9 0h-.2l-.3.1h-.3l-.2.2-.2.1-.2.1-.2.2-.2.2m0 0l-11.7 16.2m0 0l-.2.2-.2.2-.2.1-.2.2-.3.1h-.2l-.3.1h-.3m-79.5 0h79.5m-81.3-.9l.1.2.2.2.2.1.3.2.2.1h.3l.2.1h.3m-13.6-17.1l11.8 16.2m-13.6-17.1h.3l.2.1h.3l.2.2.3.1.2.1.2.2.1.2M11 78.2l18 18m-18-63v45M13.2 31L11 33.2M584.7 31H13.2M267 85.4l.2-1.1.3-1 .7-.9.8-.7.9-.5 1.1-.3h1.1l1 .3 1 .5.8.7.6.9.4 1 .1 1.1-.1 1.1-.4 1-.6.9-.8.7-1 .5-1 .3H271l-1.1-.3-.9-.5-.8-.7-.7-.9-.3-1-.2-1.1m0-18l.2-1.1.3-1 .7-.9.8-.7.9-.5 1.1-.3h1.1l1 .3 1 .5.8.7.6.9.4 1 .1 1.1-.1 1.1-.4 1-.6.9-.8.7-1 .5-1 .3H271l-1.1-.3-.9-.5-.8-.7-.7-.9-.3-1-.2-1.1m0-18l.2-1.1.3-1 .7-.9.8-.7.9-.5 1.1-.3h1.1l1 .3 1 .5.8.7.6.9.4 1 .1 1.1-.1 1.1-.4 1-.6.9-.8.7-1 .5-1 .3H271l-1.1-.3-.9-.5-.8-.7-.7-.9-.3-1-.2-1.1m2.6 50.9l.2-.7.4-.5.5-.4.7-.2.7.2.6.4.4.5.1.7-.1.7-.4.6-.6.4-.7.1-.7-.1-.5-.4-.4-.6-.2-.7m5.1-63l.1-.7.4-.5.6-.4.7-.2.7.2.5.4.4.5.2.7-.2.7-.4.6-.5.4-.7.1-.7-.1-.6-.4-.4-.6-.1-.7m-3.8 0l.1-.5.3-.5.5-.3.5-.1.6.1.4.3.4.5.1.5-.1.6-.4.4-.4.4-.6.1-.5-.1-.5-.4-.3-.4-.1-.6m-5 63l.1-.5.4-.5.4-.3.6-.1.5.1.5.3.3.5.1.5-.1.6-.3.4-.5.4-.5.1-.6-.1-.4-.4-.4-.4-.1-.6m-8.7 8.4l.1-.8.4-.7.6-.5.7-.3.8-.1.8.2.6.5.5.6.3.7v.8l-.3.8-.5.6-.6.4-.8.2h-.8l-.7-.3-.6-.6-.4-.7-.1-.8m34.6-73.2l-.2-.7-.4-.6-.5-.4-.7-.1-.7.1-.6.4-.4.6-.1.7.1.6.4.6.6.4.7.2.7-.2.5-.4.4-.6.2-.6m-36 0l-.2-.7-.4-.6-.5-.4-.7-.1-.7.1-.6.4-.4.6-.1.7.1.6.4.6.6.4.7.2.7-.2.5-.4.4-.6.2-.6m-18 0l-.2-.7-.4-.6-.5-.4-.7-.1-.7.1-.6.4-.4.6-.1.7.1.6.4.6.6.4.7.2.7-.2.5-.4.4-.6.2-.6m-18 0l-.2-.7-.4-.6-.5-.4-.7-.1-.7.1-.6.4-.4.6-.1.7.1.6.4.6.6.4.7.2.7-.2.5-.4.4-.6.2-.6m-18 0l-.2-.7-.4-.6-.5-.4-.7-.1-.7.1-.6.4-.4.6-.1.7.1.6.4.6.6.4.7.2.7-.2.5-.4.4-.6.2-.6m-18 0l-.2-.7-.4-.6-.5-.4-.7-.1-.7.1-.6.4-.4.6-.1.7.1.6.4.6.6.4.7.2.7-.2.5-.4.4-.6.2-.6m-18 0l-.2-.7-.4-.6-.5-.4-.7-.1-.7.1-.6.4-.4.6-.1.7.1.6.4.6.6.4.7.2.7-.2.5-.4.4-.6.2-.6m-18 0l-.2-.7-.4-.6-.5-.4-.7-.1-.7.1-.6.4-.4.6-.1.7.1.6.4.6.6.4.7.2.7-.2.5-.4.4-.6.2-.6m-18 0l-.2-.7-.4-.6-.5-.4-.7-.1-.7.1-.6.4-.4.6-.1.7.1.6.4.6.6.4.7.2.7-.2.5-.4.4-.6.2-.6m-18 0l-.2-.7-.4-.6-.5-.4-.7-.1-.7.1-.6.4-.4.6-.1.7.1.6.4.6.6.4.7.2.7-.2.5-.4.4-.6.2-.6m-18 0l-.2-.7-.4-.6-.5-.4-.7-.1-.7.1-.6.4-.4.6-.1.7.1.6.4.6.6.4.7.2.7-.2.5-.4.4-.6.2-.6m-18 0l-.2-.7-.4-.6-.5-.4-.7-.1-.7.1-.6.4-.4.6-.1.7.1.6.4.6.6.4.7.2.7-.2.5-.4.4-.6.2-.6m-18 0l-.2-.7-.4-.6-.5-.4-.7-.1-.7.1-.6.4-.4.6-.1.7.1.6.4.6.6.4.7.2.7-.2.5-.4.4-.6.2-.6m-18 0l-.2-.7-.4-.6-.5-.4-.7-.1-.7.1-.6.4-.4.6-.1.7.1.6.4.6.6.4.7.2.7-.2.5-.4.4-.6.2-.6m-18 0l-.2-.7-.4-.6-.5-.4-.7-.1-.7.1-.6.4-.4.6-.1.7.1.6.4.6.6.4.7.2.7-.2.5-.4.4-.6.2-.6m-4 9l-.1-.8-.4-.7-.5-.5-.7-.3-.8-.1-.8.2-.6.4-.5.6-.3.8v.8l.3.7.5.6.6.4.8.2h.8l.7-.4.5-.5.4-.7.1-.7m0 31.5l-.1-.8-.4-.7-.5-.5-.7-.3-.8-.1-.8.2-.6.4-.5.6-.3.8v.8l.3.7.5.6.6.4.8.2h.8l.7-.4.5-.5.4-.7.1-.7m81-31.5l-.1-.8-.4-.7-.5-.5-.7-.3-.8-.1-.8.2-.6.4-.5.6-.3.8v.8l.3.7.5.6.6.4.8.2h.8l.7-.4.5-.5.4-.7.1-.7m0 31.5l-.1-.8-.4-.7-.5-.5-.7-.3-.8-.1-.8.2-.6.4-.5.6-.3.8v.8l.3.7.5.6.6.4.8.2h.8l.7-.4.5-.5.4-.7.1-.7m108-31.5l-.1-.8-.4-.7-.5-.5-.7-.3-.8-.1-.8.2-.6.4-.5.6-.3.8v.8l.3.7.5.6.6.4.8.2h.8l.7-.4.5-.5.4-.7.1-.7m0 31.5l-.1-.8-.4-.7-.5-.5-.7-.3-.8-.1-.8.2-.6.4-.5.6-.3.8v.8l.3.7.5.6.6.4.8.2h.8l.7-.4.5-.5.4-.7.1-.7m40.5-22.5l-.1-.8-.4-.7-.5-.5-.7-.3-.8-.1-.8.2-.6.4-.5.6-.3.8v.8l.3.7.5.6.6.4.8.2h.8l.7-.4.5-.5.4-.7.1-.7m-36 0l-.1-.8-.4-.7-.5-.5-.7-.3-.8-.1-.8.2-.6.4-.5.6-.3.8v.8l.3.7.5.6.6.4.8.2h.8l.7-.4.5-.5.4-.7.1-.7m-36 0l-.1-.8-.4-.7-.5-.5-.7-.3-.8-.1-.8.2-.6.4-.5.6-.3.8v.8l.3.7.5.6.6.4.8.2h.8l.7-.4.5-.5.4-.7.1-.7m-72 0l-.1-.8-.4-.7-.5-.5-.7-.3-.8-.1-.8.2-.6.4-.5.6-.3.8v.8l.3.7.5.6.6.4.8.2h.8l.7-.4.5-.5.4-.7.1-.7m99 36l-.1-.8-.4-.7-.5-.5-.7-.3-.8-.1-.8.2-.6.4-.5.6-.3.8v.8l.3.7.5.6.6.4.8.2h.8l.7-.4.5-.5.4-.7.1-.7m-171-36l-.1-.8-.4-.7-.5-.5-.7-.3-.8-.1-.8.2-.6.4-.5.6-.3.8v.8l.3.7.5.6.6.4.8.2h.8l.7-.4.5-.5.4-.7.1-.7m99 36l-.1-.8-.4-.7-.5-.5-.7-.3-.8-.1-.8.2-.6.4-.5.6-.3.8v.8l.3.7.5.6.6.4.8.2h.8l.7-.4.5-.5.4-.7.1-.7M92.9 78.2l-.1-.3-.2-.3-.3-.2-.3-.1-.4.1-.3.2-.2.3v.7l.2.2.3.2.4.1.3-.1.3-.2.2-.2.1-.4M108.6 94v-.4l-.2-.3-.3-.2h-.7l-.3.2-.2.3-.1.4.1.3.2.3.3.2.3.1.4-.1.3-.2.2-.3V94m8.6 0l-.1-.4-.2-.3-.3-.2h-.7l-.3.2-.2.3v.7l.2.3.3.2.4.1.3-.1.3-.2.2-.3.1-.3m-8-9.2l-.1-.9-.4-.8-.5-.8-.8-.5-.9-.3-.9-.1-.9.2-.8.4-.7.7-.5.8-.3.9v.9l.3.9.5.8.7.6.8.4.9.2h.9l.9-.3.8-.6.5-.7.4-.9.1-.9m-15.9 0l-.1-.9-.4-.8-.6-.8-.8-.5-.8-.3-1-.1-.9.2-.8.4-.7.7-.5.8-.2.9v.9l.2.9.5.8.7.6.8.4.9.2h1l.8-.3.8-.6.6-.7.4-.9.1-.9m-17.7 0l-.2-.9-.3-.8-.6-.8-.8-.5-.9-.3-.9-.1-.9.2-.8.4-.7.7-.5.8-.2.9v.9l.2.9.5.8.7.6.8.4.9.2h.9l.9-.3.8-.6.6-.7.3-.9.2-.9m69.1 2.5l-.2-.9-.3-.8-.6-.7-.8-.6-.9-.3-.9-.1-.9.2-.8.5-.7.6-.5.8-.2.9v.9l.2.9.5.8.7.6.8.5.9.1h.9l.9-.3.8-.6.6-.7.3-.8.2-1m19.5 0l-.2-.9-.3-.8-.6-.7-.8-.6-.9-.3-.9-.1-.9.2-.8.5-.7.6-.5.8-.2.9v.9l.2.9.5.8.7.6.8.5.9.1h.9l.9-.3.8-.6.6-.7.3-.8.2-1m23 0l-.1-.9-.4-.8-.6-.7-.7-.6-.9-.3-.9-.1-1 .2-.8.5-.7.6-.4.8-.3.9v.9l.3.9.4.8.7.6.8.5 1 .1h.9l.9-.3.7-.6.6-.7.4-.8.1-1m37.9-.3l-.1-.8-.4-.6-.5-.6-.7-.3h-.8l-.8.1-.6.5-.5.6-.3.7v.8l.3.7.5.7.6.4.8.2.8-.1.7-.3.5-.5.4-.7.1-.8m-54.8-42.5l-.2-.7-.4-.6-.5-.4-.7-.1-.7.1-.6.4-.4.6-.1.7.1.7.4.5.6.4.7.2.7-.2.5-.4.4-.5.2-.7m0 45l-.2-.7-.4-.6-.5-.4-.7-.1-.7.1-.6.4-.4.6-.1.7.1.7.4.5.6.4.7.2.7-.2.5-.4.4-.5.2-.7m-90 0l-.2-.7-.4-.6-.5-.4-.7-.1-.7.1-.6.4-.4.6-.1.7.1.7.4.5.6.4.7.2.7-.2.5-.4.4-.5.2-.7m0-45l-.2-.7-.4-.6-.5-.4-.7-.1-.7.1-.6.4-.4.6-.1.7.1.7.4.5.6.4.7.2.7-.2.5-.4.4-.5.2-.7M104.7 67l-.1-1.2-.4-1.2-.7-1-.8-.9-1-.7-1.1-.5-1.2-.2-1.2.1-1.2.3-1.1.6-.9.8-.8 1-.5 1.1-.2 1.2v1.2l.2 1.2.5 1.1.8.9.9.8 1.1.6 1.2.3 1.2.1 1.2-.2 1.1-.5 1-.7.8-.8.7-1.1.4-1.1.1-1.2m194.3-.6l-1.5-.1-1.4-.4-1.3-.7-1.2-.8-.9-1.1-.8-1.3-.5-1.3-.3-1.4v-1.5l.3-1.4.5-1.4.8-1.2.9-1.1 1.2-.9 1.3-.6 1.4-.4 1.5-.1m0 15.7l1.4-.1 1.4-.4 1.3-.7 1.2-.8 1-1.1.7-1.3.6-1.3.2-1.4v-1.5l-.2-1.4-.6-1.4-.7-1.2-1-1.1-1.2-.9-1.3-.6-1.4-.4-1.4-.1m-10.2 36.6l.2-1.5.3-1.6.6-1.4.9-1.4 1-1.2 1.2-1 1.4-.9 1.4-.6 1.6-.4 1.6-.1 1.6.1 1.5.4 1.5.6 1.3.9 1.2 1 1.1 1.2.8 1.4.6 1.4.4 1.6.1 1.5-.1 1.6-.4 1.6-.6 1.4-.8 1.4-1.1 1.2-1.2 1-1.3.9-1.5.6-1.5.3-1.6.2-1.6-.2-1.6-.3-1.4-.6-1.4-.9-1.2-1-1-1.2-.9-1.4-.6-1.4-.3-1.6-.2-1.6M569 96.2h-13.9m-193.1 0h-7.9M29 96.2h13.8m193.2 0h7.8" stroke="#4A4A4A"/><g><circle id="Oval-2" cx="4" cy="4" r="4" transform="translate(68 81) translate(227 2)"/><circle id="Oval-2" cx="4" cy="4" r="4" transform="translate(68 81)"/><circle id="Oval-2" cx="4" cy="4" r="4" transform="translate(68 81) translate(454)"/></g><g transform="translate(37 83)"><text font-family="Helvetica Neue" font-size="24" font-style="italic" font-weight="260" fill="#000"><tspan x="0" y="108">6WD Kit of Parts Short</tspan></text><circle id="Oval-2" stroke="#4A4A4A" cx="263" cy="4" r="4"/><circle id="Oval-2" stroke="#4A4A4A" cx="105" cy="4" r="4"/><circle stroke="#4A4A4A" cx="421" cy="4" r="4"/></g></g></svg>