<?xml version="1.0" encoding="UTF-8" standalone="no"?>
<svg width="596px" height="209px" viewBox="0 0 596 209" version="1.1" xmlns="http://www.w3.org/2000/svg" xmlns:xlink="http://www.w3.org/1999/xlink" xmlns:sketch="http://www.bohemiancoding.com/sketch/ns">
    <!-- Generator: Sketch 3.1.1 (8761) - http://www.bohemiancoding.com/sketch -->
    <title>KoP 2</title>
    <desc>Created with Sketch.</desc>
    <defs></defs>
    <g id="Page-1" stroke="none" stroke-width="1" fill="none" fill-rule="evenodd" sketch:type="MSPage">
        <path d="M45.1,97.3 L45.1,99.6 M233.7,99.6 L233.7,97.3 M233.7,99.6 L45.1,99.6 M233.7,97.3 L45.1,97.3 M236,97.3 L236,99.6 M236,99.6 L233.7,99.6 M233.7,97.3 L236,97.3 M364.2,99.6 L364.2,97.3 M552.9,97.3 L552.9,99.6 M364.2,99.6 L552.9,99.6 M364.2,97.3 L552.9,97.3 M362,97.3 L362,99.6 M362,99.6 L364.2,99.6 M364.2,97.3 L362,97.3 M555.1,99.6 L555.1,97.3 M552.9,99.6 L555.1,99.6 M555.1,97.3 L552.9,97.3 M42.8,99.6 L42.8,97.3 M45.1,99.6 L42.8,99.6 M42.8,97.3 L45.1,97.3 M555.1,96.2 L555.1,96.4 L555.1,96.6 L555.1,96.8 L555.1,97 L555.1,97.1 L555.1,97.3 M362,96.2 L555.1,96.2 M362,97.3 L362,97.3 L362,97.1 L362,97 L362,96.8 L362,96.6 L362,96.4 L362,96.2 M42.8,96.2 L42.8,96.4 L42.8,96.6 L42.8,96.8 L42.8,97 L42.8,97.1 L42.8,97.3 M236,96.2 L42.8,96.2 M236,97.3 L236,97.3 L236,97.1 L236,97 L236,96.8 L236,96.6 L236,96.4 L236,96.2 M330.9,85.4 L330.8,84.3 L330.4,83.3 L329.8,82.4 L329,81.7 L328,81.2 L327,80.9 L325.9,80.9 L324.8,81.2 L323.9,81.7 L323.1,82.4 L322.4,83.3 L322.1,84.3 L321.9,85.4 L322.1,86.5 L322.4,87.5 L323.1,88.4 L323.9,89.1 L324.8,89.6 L325.9,89.9 L327,89.9 L328,89.6 L329,89.1 L329.8,88.4 L330.4,87.5 L330.8,86.5 L330.9,85.4 M330.9,67.4 L330.8,66.3 L330.4,65.3 L329.8,64.4 L329,63.7 L328,63.2 L327,62.9 L325.9,62.9 L324.8,63.2 L323.9,63.7 L323.1,64.4 L322.4,65.3 L322.1,66.3 L321.9,67.4 L322.1,68.5 L322.4,69.5 L323.1,70.4 L323.9,71.1 L324.8,71.6 L325.9,71.9 L327,71.9 L328,71.6 L329,71.1 L329.8,70.4 L330.4,69.5 L330.8,68.5 L330.9,67.4 M330.9,49.4 L330.8,48.3 L330.4,47.3 L329.8,46.4 L329,45.7 L328,45.2 L327,44.9 L325.9,44.9 L324.8,45.2 L323.9,45.7 L323.1,46.4 L322.4,47.3 L322.1,48.3 L321.9,49.4 L322.1,50.5 L322.4,51.5 L323.1,52.4 L323.9,53.1 L324.8,53.6 L325.9,53.9 L327,53.9 L328,53.6 L329,53.1 L329.8,52.4 L330.4,51.5 L330.8,50.5 L330.9,49.4 M328.3,100.3 L328.2,99.6 L327.8,99.1 L327.2,98.7 L326.5,98.5 L325.8,98.7 L325.2,99.1 L324.8,99.6 L324.7,100.3 L324.8,101 L325.2,101.6 L325.8,102 L326.5,102.1 L327.2,102 L327.8,101.6 L328.2,101 L328.3,100.3 M323.3,37.3 L323.1,36.6 L322.7,36.1 L322.2,35.7 L321.5,35.5 L320.8,35.7 L320.2,36.1 L319.8,36.6 L319.7,37.3 L319.8,38 L320.2,38.6 L320.8,39 L321.5,39.1 L322.2,39 L322.7,38.6 L323.1,38 L323.3,37.3 M327,37.3 L326.9,36.8 L326.6,36.3 L326.2,36 L325.6,35.9 L325.1,36 L324.6,36.3 L324.3,36.8 L324.2,37.3 L324.3,37.9 L324.6,38.3 L325.1,38.7 L325.6,38.8 L326.2,38.7 L326.6,38.3 L326.9,37.9 L327,37.3 M332,100.3 L331.9,99.8 L331.6,99.3 L331.1,99 L330.6,98.9 L330,99 L329.5,99.3 L329.2,99.8 L329.1,100.3 L329.2,100.9 L329.5,101.3 L330,101.7 L330.6,101.8 L331.1,101.7 L331.6,101.3 L331.9,100.9 L332,100.3 M340.8,108.7 L340.6,107.9 L340.3,107.2 L339.7,106.7 L338.9,106.4 L338.2,106.3 L337.4,106.5 L336.7,107 L336.2,107.6 L336,108.3 L336,109.1 L336.2,109.9 L336.7,110.5 L337.4,110.9 L338.2,111.1 L338.9,111.1 L339.7,110.8 L340.3,110.2 L340.6,109.5 L340.8,108.7 M306.2,35.5 L306.3,34.8 L306.7,34.2 L307.3,33.8 L308,33.7 L308.7,33.8 L309.2,34.2 L309.6,34.8 L309.8,35.5 L309.6,36.1 L309.2,36.7 L308.7,37.1 L308,37.3 L307.3,37.1 L306.7,36.7 L306.3,36.1 L306.2,35.5 M342.2,35.5 L342.3,34.8 L342.7,34.2 L343.3,33.8 L344,33.7 L344.7,33.8 L345.2,34.2 L345.6,34.8 L345.8,35.5 L345.6,36.1 L345.2,36.7 L344.7,37.1 L344,37.3 L343.3,37.1 L342.7,36.7 L342.3,36.1 L342.2,35.5 M360.2,35.5 L360.3,34.8 L360.7,34.2 L361.3,33.8 L362,33.7 L362.7,33.8 L363.2,34.2 L363.6,34.8 L363.8,35.5 L363.6,36.1 L363.2,36.7 L362.7,37.1 L362,37.3 L361.3,37.1 L360.7,36.7 L360.3,36.1 L360.2,35.5 M378.2,35.5 L378.3,34.8 L378.7,34.2 L379.3,33.8 L380,33.7 L380.7,33.8 L381.2,34.2 L381.6,34.8 L381.8,35.5 L381.6,36.1 L381.2,36.7 L380.7,37.1 L380,37.3 L379.3,37.1 L378.7,36.7 L378.3,36.1 L378.2,35.5 M396.2,35.5 L396.3,34.8 L396.7,34.2 L397.3,33.8 L398,33.7 L398.7,33.8 L399.2,34.2 L399.6,34.8 L399.8,35.5 L399.6,36.1 L399.2,36.7 L398.7,37.1 L398,37.3 L397.3,37.1 L396.7,36.7 L396.3,36.1 L396.2,35.5 M414.2,35.5 L414.3,34.8 L414.7,34.2 L415.3,33.8 L416,33.7 L416.7,33.8 L417.2,34.2 L417.6,34.8 L417.8,35.5 L417.6,36.1 L417.2,36.7 L416.7,37.1 L416,37.3 L415.3,37.1 L414.7,36.7 L414.3,36.1 L414.2,35.5 M432.2,35.5 L432.3,34.8 L432.7,34.2 L433.3,33.8 L434,33.7 L434.7,33.8 L435.2,34.2 L435.6,34.8 L435.8,35.5 L435.6,36.1 L435.2,36.7 L434.7,37.1 L434,37.3 L433.3,37.1 L432.7,36.7 L432.3,36.1 L432.2,35.5 M450.2,35.5 L450.3,34.8 L450.7,34.2 L451.3,33.8 L452,33.7 L452.7,33.8 L453.2,34.2 L453.6,34.8 L453.8,35.5 L453.6,36.1 L453.2,36.7 L452.7,37.1 L452,37.3 L451.3,37.1 L450.7,36.7 L450.3,36.1 L450.2,35.5 M468.2,35.5 L468.3,34.8 L468.7,34.2 L469.3,33.8 L470,33.7 L470.7,33.8 L471.2,34.2 L471.6,34.8 L471.8,35.5 L471.6,36.1 L471.2,36.7 L470.7,37.1 L470,37.3 L469.3,37.1 L468.7,36.7 L468.3,36.1 L468.2,35.5 M486.2,35.5 L486.3,34.8 L486.7,34.2 L487.3,33.8 L488,33.7 L488.7,33.8 L489.2,34.2 L489.6,34.8 L489.8,35.5 L489.6,36.1 L489.2,36.7 L488.7,37.1 L488,37.3 L487.3,37.1 L486.7,36.7 L486.3,36.1 L486.2,35.5 M504.2,35.5 L504.3,34.8 L504.7,34.2 L505.3,33.8 L506,33.7 L506.7,33.8 L507.2,34.2 L507.6,34.8 L507.8,35.5 L507.6,36.1 L507.2,36.7 L506.7,37.1 L506,37.3 L505.3,37.1 L504.7,36.7 L504.3,36.1 L504.2,35.5 M522.2,35.5 L522.3,34.8 L522.7,34.2 L523.3,33.8 L524,33.7 L524.7,33.8 L525.2,34.2 L525.6,34.8 L525.8,35.5 L525.6,36.1 L525.2,36.7 L524.7,37.1 L524,37.3 L523.3,37.1 L522.7,36.7 L522.3,36.1 L522.2,35.5 M540.2,35.5 L540.3,34.8 L540.7,34.2 L541.3,33.8 L542,33.7 L542.7,33.8 L543.2,34.2 L543.6,34.8 L543.8,35.5 L543.6,36.1 L543.2,36.7 L542.7,37.1 L542,37.3 L541.3,37.1 L540.7,36.7 L540.3,36.1 L540.2,35.5 M558.2,35.5 L558.3,34.8 L558.7,34.2 L559.3,33.8 L560,33.7 L560.7,33.8 L561.2,34.2 L561.6,34.8 L561.8,35.5 L561.6,36.1 L561.2,36.7 L560.7,37.1 L560,37.3 L559.3,37.1 L558.7,36.7 L558.3,36.1 L558.2,35.5 M576.2,35.5 L576.3,34.8 L576.7,34.2 L577.3,33.8 L578,33.7 L578.7,33.8 L579.2,34.2 L579.6,34.8 L579.8,35.5 L579.6,36.1 L579.2,36.7 L578.7,37.1 L578,37.3 L577.3,37.1 L576.7,36.7 L576.3,36.1 L576.2,35.5 M580.1,44.5 L580.2,43.7 L580.6,43 L581.2,42.5 L581.9,42.2 L582.7,42.1 L583.4,42.3 L584.1,42.7 L584.6,43.3 L584.8,44.1 L584.8,44.9 L584.6,45.6 L584.1,46.2 L583.4,46.6 L582.7,46.8 L581.9,46.8 L581.2,46.4 L580.6,45.9 L580.2,45.2 L580.1,44.5 M580.1,76 L580.2,75.2 L580.6,74.5 L581.2,74 L581.9,73.7 L582.7,73.6 L583.4,73.8 L584.1,74.2 L584.6,74.8 L584.8,75.6 L584.8,76.4 L584.6,77.1 L584.1,77.7 L583.4,78.1 L582.7,78.3 L581.9,78.3 L581.2,77.9 L580.6,77.4 L580.2,76.7 L580.1,76 M499.1,44.5 L499.2,43.7 L499.6,43 L500.2,42.5 L500.9,42.2 L501.7,42.1 L502.4,42.3 L503.1,42.7 L503.6,43.3 L503.8,44.1 L503.8,44.9 L503.6,45.6 L503.1,46.2 L502.4,46.6 L501.7,46.8 L500.9,46.8 L500.2,46.4 L499.6,45.9 L499.2,45.2 L499.1,44.5 M499.1,76 L499.2,75.2 L499.6,74.5 L500.2,74 L500.9,73.7 L501.7,73.6 L502.4,73.8 L503.1,74.2 L503.6,74.8 L503.8,75.6 L503.8,76.4 L503.6,77.1 L503.1,77.7 L502.4,78.1 L501.7,78.3 L500.9,78.3 L500.2,77.9 L499.6,77.4 L499.2,76.7 L499.1,76 M391.1,44.5 L391.2,43.7 L391.6,43 L392.2,42.5 L392.9,42.2 L393.7,42.1 L394.4,42.3 L395.1,42.7 L395.6,43.3 L395.8,44.1 L395.8,44.9 L395.6,45.6 L395.1,46.2 L394.4,46.6 L393.7,46.8 L392.9,46.8 L392.2,46.4 L391.6,45.9 L391.2,45.2 L391.1,44.5 M391.1,76 L391.2,75.2 L391.6,74.5 L392.2,74 L392.9,73.7 L393.7,73.6 L394.4,73.8 L395.1,74.2 L395.6,74.8 L395.8,75.6 L395.8,76.4 L395.6,77.1 L395.1,77.7 L394.4,78.1 L393.7,78.3 L392.9,78.3 L392.2,77.9 L391.6,77.4 L391.2,76.7 L391.1,76 M350.6,53.5 L350.7,52.7 L351.1,52 L351.7,51.5 L352.4,51.2 L353.2,51.1 L353.9,51.3 L354.6,51.7 L355.1,52.3 L355.3,53.1 L355.3,53.9 L355.1,54.6 L354.6,55.2 L353.9,55.6 L353.2,55.8 L352.4,55.8 L351.7,55.4 L351.1,54.9 L350.7,54.2 L350.6,53.5 M386.6,53.5 L386.7,52.7 L387.1,52 L387.7,51.5 L388.4,51.2 L389.2,51.1 L389.9,51.3 L390.6,51.7 L391.1,52.3 L391.3,53.1 L391.3,53.9 L391.1,54.6 L390.6,55.2 L389.9,55.6 L389.2,55.8 L388.4,55.8 L387.7,55.4 L387.1,54.9 L386.7,54.2 L386.6,53.5 M422.6,53.5 L422.7,52.7 L423.1,52 L423.7,51.5 L424.4,51.2 L425.2,51.1 L425.9,51.3 L426.6,51.7 L427.1,52.3 L427.3,53.1 L427.3,53.9 L427.1,54.6 L426.6,55.2 L425.9,55.6 L425.2,55.8 L424.4,55.8 L423.7,55.4 L423.1,54.9 L422.7,54.2 L422.6,53.5 M494.6,53.5 L494.7,52.7 L495.1,52 L495.7,51.5 L496.4,51.2 L497.2,51.1 L497.9,51.3 L498.6,51.7 L499.1,52.3 L499.3,53.1 L499.3,53.9 L499.1,54.6 L498.6,55.2 L497.9,55.6 L497.2,55.8 L496.4,55.8 L495.7,55.4 L495.1,54.9 L494.7,54.2 L494.6,53.5 M395.6,89.5 L395.7,88.7 L396.1,88 L396.7,87.5 L397.4,87.2 L398.2,87.1 L398.9,87.3 L399.6,87.7 L400.1,88.3 L400.3,89.1 L400.3,89.9 L400.1,90.6 L399.6,91.2 L398.9,91.6 L398.2,91.8 L397.4,91.8 L396.7,91.4 L396.1,90.9 L395.7,90.2 L395.6,89.5 M566.6,53.5 L566.7,52.7 L567.1,52 L567.7,51.5 L568.4,51.2 L569.2,51.1 L569.9,51.3 L570.6,51.7 L571.1,52.3 L571.3,53.1 L571.3,53.9 L571.1,54.6 L570.6,55.2 L569.9,55.6 L569.2,55.8 L568.4,55.8 L567.7,55.4 L567.1,54.9 L566.7,54.2 L566.6,53.5 M467.6,89.5 L467.7,88.7 L468.1,88 L468.7,87.5 L469.4,87.2 L470.2,87.1 L470.9,87.3 L471.6,87.7 L472.1,88.3 L472.3,89.1 L472.3,89.9 L472.1,90.6 L471.6,91.2 L470.9,91.6 L470.2,91.8 L469.4,91.8 L468.7,91.4 L468.1,90.9 L467.7,90.2 L467.6,89.5 M505.1,78.2 L505.1,77.9 L505.3,77.6 L505.6,77.4 L506,77.3 L506.3,77.4 L506.6,77.6 L506.8,77.9 L506.9,78.2 L506.8,78.6 L506.6,78.8 L506.3,79 L506,79.1 L505.6,79 L505.3,78.8 L505.1,78.6 L505.1,78.2 M489.3,94 L489.4,93.6 L489.6,93.3 L489.9,93.1 L490.2,93.1 L490.6,93.1 L490.9,93.3 L491.1,93.6 L491.1,94 L491.1,94.3 L490.9,94.6 L490.6,94.8 L490.2,94.9 L489.9,94.8 L489.6,94.6 L489.4,94.3 L489.3,94 M480.8,94 L480.8,93.6 L481,93.3 L481.3,93.1 L481.7,93.1 L482,93.1 L482.3,93.3 L482.5,93.6 L482.6,94 L482.5,94.3 L482.3,94.6 L482,94.8 L481.7,94.9 L481.3,94.8 L481,94.6 L480.8,94.3 L480.8,94 M488.7,84.8 L488.8,83.9 L489.2,83.1 L489.8,82.3 L490.5,81.8 L491.4,81.5 L492.3,81.4 L493.3,81.6 L494.1,82 L494.8,82.7 L495.2,83.5 L495.5,84.4 L495.5,85.3 L495.2,86.2 L494.8,87 L494.1,87.6 L493.3,88 L492.3,88.2 L491.4,88.2 L490.5,87.9 L489.8,87.3 L489.2,86.6 L488.8,85.7 L488.7,84.8 M504.7,84.8 L504.8,83.9 L505.1,83.1 L505.7,82.3 L506.5,81.8 L507.4,81.5 L508.3,81.4 L509.2,81.6 L510,82 L510.7,82.7 L511.2,83.5 L511.4,84.4 L511.4,85.3 L511.2,86.2 L510.7,87 L510,87.6 L509.2,88 L508.3,88.2 L507.4,88.2 L506.5,87.9 L505.7,87.3 L505.1,86.6 L504.8,85.7 L504.7,84.8 M522.4,84.8 L522.5,83.9 L522.9,83.1 L523.5,82.3 L524.2,81.8 L525.1,81.5 L526,81.4 L526.9,81.6 L527.8,82 L528.4,82.7 L528.9,83.5 L529.2,84.4 L529.2,85.3 L528.9,86.2 L528.4,87 L527.8,87.6 L526.9,88 L526,88.2 L525.1,88.2 L524.2,87.9 L523.5,87.3 L522.9,86.6 L522.5,85.7 L522.4,84.8 M453.3,87.3 L453.4,86.4 L453.8,85.6 L454.4,84.9 L455.1,84.3 L456,84 L456.9,83.9 L457.8,84.1 L458.7,84.6 L459.3,85.2 L459.8,86 L460.1,86.9 L460.1,87.8 L459.8,88.7 L459.3,89.5 L458.7,90.1 L457.8,90.6 L456.9,90.7 L456,90.7 L455.1,90.4 L454.4,89.8 L453.8,89.1 L453.4,88.3 L453.3,87.3 M433.8,87.3 L433.9,86.4 L434.3,85.6 L434.9,84.9 L435.6,84.3 L436.5,84 L437.4,83.9 L438.3,84.1 L439.2,84.6 L439.8,85.2 L440.3,86 L440.6,86.9 L440.6,87.8 L440.3,88.7 L439.8,89.5 L439.2,90.1 L438.3,90.6 L437.4,90.7 L436.5,90.7 L435.6,90.4 L434.9,89.8 L434.3,89.1 L433.9,88.3 L433.8,87.3 M410.7,87.3 L410.9,86.4 L411.2,85.6 L411.8,84.9 L412.6,84.3 L413.5,84 L414.4,83.9 L415.3,84.1 L416.1,84.6 L416.8,85.2 L417.3,86 L417.5,86.9 L417.5,87.8 L417.3,88.7 L416.8,89.5 L416.1,90.1 L415.3,90.6 L414.4,90.7 L413.5,90.7 L412.6,90.4 L411.8,89.8 L411.2,89.1 L410.9,88.3 L410.7,87.3 M372.8,87 L372.9,86.2 L373.3,85.6 L373.9,85 L374.6,84.7 L375.4,84.7 L376.1,84.8 L376.8,85.3 L377.3,85.9 L377.5,86.6 L377.5,87.4 L377.3,88.1 L376.8,88.8 L376.1,89.2 L375.4,89.4 L374.6,89.3 L373.9,89 L373.3,88.5 L372.9,87.8 L372.8,87 M427.7,44.5 L427.8,43.8 L428.2,43.2 L428.8,42.8 L429.5,42.7 L430.2,42.8 L430.7,43.2 L431.1,43.8 L431.3,44.5 L431.1,45.2 L430.7,45.7 L430.2,46.1 L429.5,46.3 L428.8,46.1 L428.2,45.7 L427.8,45.2 L427.7,44.5 M427.7,89.5 L427.8,88.8 L428.2,88.2 L428.8,87.8 L429.5,87.7 L430.2,87.8 L430.7,88.2 L431.1,88.8 L431.3,89.5 L431.1,90.2 L430.7,90.7 L430.2,91.1 L429.5,91.3 L428.8,91.1 L428.2,90.7 L427.8,90.2 L427.7,89.5 M517.7,89.5 L517.8,88.8 L518.2,88.2 L518.8,87.8 L519.5,87.7 L520.2,87.8 L520.7,88.2 L521.1,88.8 L521.3,89.5 L521.1,90.2 L520.7,90.7 L520.2,91.1 L519.5,91.3 L518.8,91.1 L518.2,90.7 L517.8,90.2 L517.7,89.5 M517.7,44.5 L517.8,43.8 L518.2,43.2 L518.8,42.8 L519.5,42.7 L520.2,42.8 L520.7,43.2 L521.1,43.8 L521.3,44.5 L521.1,45.2 L520.7,45.7 L520.2,46.1 L519.5,46.3 L518.8,46.1 L518.2,45.7 L517.8,45.2 L517.7,44.5 M493.3,67 L493.4,65.8 L493.8,64.6 L494.4,63.6 L495.2,62.7 L496.2,62 L497.4,61.5 L498.6,61.3 L499.8,61.4 L501,61.7 L502,62.3 L503,63.1 L503.7,64.1 L504.2,65.2 L504.5,66.4 L504.5,67.6 L504.2,68.8 L503.7,69.9 L503,70.8 L502,71.6 L501,72.2 L499.8,72.5 L498.6,72.6 L497.4,72.4 L496.2,71.9 L495.2,71.2 L494.4,70.4 L493.8,69.3 L493.4,68.2 L493.3,67 M584.7,31 L587,33.2 M587,33.2 L587,78.2 M587,78.2 L569,96.2 M354.1,96.2 L353.9,96.2 L353.6,96.3 L353.3,96.3 L353.1,96.5 L352.9,96.6 L352.7,96.7 L352.5,96.9 L352.3,97.1 M352.3,97.1 L340.6,113.3 M340.6,113.3 L340.4,113.5 L340.2,113.7 L340,113.8 L339.8,114 L339.5,114.1 L339.3,114.1 L339,114.2 L338.7,114.2 M259.2,114.2 L338.7,114.2 M257.4,113.3 L257.5,113.5 L257.7,113.7 L257.9,113.8 L258.2,114 L258.4,114.1 L258.7,114.1 L258.9,114.2 L259.2,114.2 M245.6,97.1 L257.4,113.3 M243.8,96.2 L244.1,96.2 L244.3,96.3 L244.6,96.3 L244.8,96.5 L245.1,96.6 L245.3,96.7 L245.5,96.9 L245.6,97.1 M11,78.2 L29,96.2 M11,33.2 L11,78.2 M13.2,31 L11,33.2 M584.7,31 L13.2,31 M267,85.4 L267.2,84.3 L267.5,83.3 L268.2,82.4 L269,81.7 L269.9,81.2 L271,80.9 L272.1,80.9 L273.1,81.2 L274.1,81.7 L274.9,82.4 L275.5,83.3 L275.9,84.3 L276,85.4 L275.9,86.5 L275.5,87.5 L274.9,88.4 L274.1,89.1 L273.1,89.6 L272.1,89.9 L271,89.9 L269.9,89.6 L269,89.1 L268.2,88.4 L267.5,87.5 L267.2,86.5 L267,85.4 M267,67.4 L267.2,66.3 L267.5,65.3 L268.2,64.4 L269,63.7 L269.9,63.2 L271,62.9 L272.1,62.9 L273.1,63.2 L274.1,63.7 L274.9,64.4 L275.5,65.3 L275.9,66.3 L276,67.4 L275.9,68.5 L275.5,69.5 L274.9,70.4 L274.1,71.1 L273.1,71.6 L272.1,71.9 L271,71.9 L269.9,71.6 L269,71.1 L268.2,70.4 L267.5,69.5 L267.2,68.5 L267,67.4 M267,49.4 L267.2,48.3 L267.5,47.3 L268.2,46.4 L269,45.7 L269.9,45.2 L271,44.9 L272.1,44.9 L273.1,45.2 L274.1,45.7 L274.9,46.4 L275.5,47.3 L275.9,48.3 L276,49.4 L275.9,50.5 L275.5,51.5 L274.9,52.4 L274.1,53.1 L273.1,53.6 L272.1,53.9 L271,53.9 L269.9,53.6 L269,53.1 L268.2,52.4 L267.5,51.5 L267.2,50.5 L267,49.4 M269.6,100.3 L269.8,99.6 L270.2,99.1 L270.7,98.7 L271.4,98.5 L272.1,98.7 L272.7,99.1 L273.1,99.6 L273.2,100.3 L273.1,101 L272.7,101.6 L272.1,102 L271.4,102.1 L270.7,102 L270.2,101.6 L269.8,101 L269.6,100.3 M274.7,37.3 L274.8,36.6 L275.2,36.1 L275.8,35.7 L276.5,35.5 L277.2,35.7 L277.7,36.1 L278.1,36.6 L278.3,37.3 L278.1,38 L277.7,38.6 L277.2,39 L276.5,39.1 L275.8,39 L275.2,38.6 L274.8,38 L274.7,37.3 M270.9,37.3 L271,36.8 L271.3,36.3 L271.8,36 L272.3,35.9 L272.9,36 L273.3,36.3 L273.7,36.8 L273.8,37.3 L273.7,37.9 L273.3,38.3 L272.9,38.7 L272.3,38.8 L271.8,38.7 L271.3,38.3 L271,37.9 L270.9,37.3 M265.9,100.3 L266,99.8 L266.4,99.3 L266.8,99 L267.4,98.9 L267.9,99 L268.4,99.3 L268.7,99.8 L268.8,100.3 L268.7,100.9 L268.4,101.3 L267.9,101.7 L267.4,101.8 L266.8,101.7 L266.4,101.3 L266,100.9 L265.9,100.3 M257.2,108.7 L257.3,107.9 L257.7,107.2 L258.3,106.7 L259,106.4 L259.8,106.3 L260.6,106.5 L261.2,107 L261.7,107.6 L262,108.3 L262,109.1 L261.7,109.9 L261.2,110.5 L260.6,110.9 L259.8,111.1 L259,111.1 L258.3,110.8 L257.7,110.2 L257.3,109.5 L257.2,108.7 M291.8,35.5 L291.6,34.8 L291.2,34.2 L290.7,33.8 L290,33.7 L289.3,33.8 L288.7,34.2 L288.3,34.8 L288.2,35.5 L288.3,36.1 L288.7,36.7 L289.3,37.1 L290,37.3 L290.7,37.1 L291.2,36.7 L291.6,36.1 L291.8,35.5 M255.8,35.5 L255.6,34.8 L255.2,34.2 L254.7,33.8 L254,33.7 L253.3,33.8 L252.7,34.2 L252.3,34.8 L252.2,35.5 L252.3,36.1 L252.7,36.7 L253.3,37.1 L254,37.3 L254.7,37.1 L255.2,36.7 L255.6,36.1 L255.8,35.5 M237.8,35.5 L237.6,34.8 L237.2,34.2 L236.7,33.8 L236,33.7 L235.3,33.8 L234.7,34.2 L234.3,34.8 L234.2,35.5 L234.3,36.1 L234.7,36.7 L235.3,37.1 L236,37.3 L236.7,37.1 L237.2,36.7 L237.6,36.1 L237.8,35.5 M219.8,35.5 L219.6,34.8 L219.2,34.2 L218.7,33.8 L218,33.7 L217.3,33.8 L216.7,34.2 L216.3,34.8 L216.2,35.5 L216.3,36.1 L216.7,36.7 L217.3,37.1 L218,37.3 L218.7,37.1 L219.2,36.7 L219.6,36.1 L219.8,35.5 M201.8,35.5 L201.6,34.8 L201.2,34.2 L200.7,33.8 L200,33.7 L199.3,33.8 L198.7,34.2 L198.3,34.8 L198.2,35.5 L198.3,36.1 L198.7,36.7 L199.3,37.1 L200,37.3 L200.7,37.1 L201.2,36.7 L201.6,36.1 L201.8,35.5 M183.8,35.5 L183.6,34.8 L183.2,34.2 L182.7,33.8 L182,33.7 L181.3,33.8 L180.7,34.2 L180.3,34.8 L180.2,35.5 L180.3,36.1 L180.7,36.7 L181.3,37.1 L182,37.3 L182.7,37.1 L183.2,36.7 L183.6,36.1 L183.8,35.5 M165.8,35.5 L165.6,34.8 L165.2,34.2 L164.7,33.8 L164,33.7 L163.3,33.8 L162.7,34.2 L162.3,34.8 L162.2,35.5 L162.3,36.1 L162.7,36.7 L163.3,37.1 L164,37.3 L164.7,37.1 L165.2,36.7 L165.6,36.1 L165.8,35.5 M147.8,35.5 L147.6,34.8 L147.2,34.2 L146.7,33.8 L146,33.7 L145.3,33.8 L144.7,34.2 L144.3,34.8 L144.2,35.5 L144.3,36.1 L144.7,36.7 L145.3,37.1 L146,37.3 L146.7,37.1 L147.2,36.7 L147.6,36.1 L147.8,35.5 M129.8,35.5 L129.6,34.8 L129.2,34.2 L128.7,33.8 L128,33.7 L127.3,33.8 L126.7,34.2 L126.3,34.8 L126.2,35.5 L126.3,36.1 L126.7,36.7 L127.3,37.1 L128,37.3 L128.7,37.1 L129.2,36.7 L129.6,36.1 L129.8,35.5 M111.8,35.5 L111.6,34.8 L111.2,34.2 L110.7,33.8 L110,33.7 L109.3,33.8 L108.7,34.2 L108.3,34.8 L108.2,35.5 L108.3,36.1 L108.7,36.7 L109.3,37.1 L110,37.3 L110.7,37.1 L111.2,36.7 L111.6,36.1 L111.8,35.5 M93.8,35.5 L93.6,34.8 L93.2,34.2 L92.7,33.8 L92,33.7 L91.3,33.8 L90.7,34.2 L90.3,34.8 L90.2,35.5 L90.3,36.1 L90.7,36.7 L91.3,37.1 L92,37.3 L92.7,37.1 L93.2,36.7 L93.6,36.1 L93.8,35.5 M75.8,35.5 L75.6,34.8 L75.2,34.2 L74.7,33.8 L74,33.7 L73.3,33.8 L72.7,34.2 L72.3,34.8 L72.2,35.5 L72.3,36.1 L72.7,36.7 L73.3,37.1 L74,37.3 L74.7,37.1 L75.2,36.7 L75.6,36.1 L75.8,35.5 M57.8,35.5 L57.6,34.8 L57.2,34.2 L56.7,33.8 L56,33.7 L55.3,33.8 L54.7,34.2 L54.3,34.8 L54.2,35.5 L54.3,36.1 L54.7,36.7 L55.3,37.1 L56,37.3 L56.7,37.1 L57.2,36.7 L57.6,36.1 L57.8,35.5 M39.8,35.5 L39.6,34.8 L39.2,34.2 L38.7,33.8 L38,33.7 L37.3,33.8 L36.7,34.2 L36.3,34.8 L36.2,35.5 L36.3,36.1 L36.7,36.7 L37.3,37.1 L38,37.3 L38.7,37.1 L39.2,36.7 L39.6,36.1 L39.8,35.5 M21.8,35.5 L21.6,34.8 L21.2,34.2 L20.7,33.8 L20,33.7 L19.3,33.8 L18.7,34.2 L18.3,34.8 L18.2,35.5 L18.3,36.1 L18.7,36.7 L19.3,37.1 L20,37.3 L20.7,37.1 L21.2,36.7 L21.6,36.1 L21.8,35.5 M17.8,44.5 L17.7,43.7 L17.3,43 L16.8,42.5 L16.1,42.2 L15.3,42.1 L14.5,42.3 L13.9,42.7 L13.4,43.3 L13.1,44.1 L13.1,44.9 L13.4,45.6 L13.9,46.2 L14.5,46.6 L15.3,46.8 L16.1,46.8 L16.8,46.4 L17.3,45.9 L17.7,45.2 L17.8,44.5 M17.8,76 L17.7,75.2 L17.3,74.5 L16.8,74 L16.1,73.7 L15.3,73.6 L14.5,73.8 L13.9,74.2 L13.4,74.8 L13.1,75.6 L13.1,76.4 L13.4,77.1 L13.9,77.7 L14.5,78.1 L15.3,78.3 L16.1,78.3 L16.8,77.9 L17.3,77.4 L17.7,76.7 L17.8,76 M98.8,44.5 L98.7,43.7 L98.3,43 L97.8,42.5 L97.1,42.2 L96.3,42.1 L95.5,42.3 L94.9,42.7 L94.4,43.3 L94.1,44.1 L94.1,44.9 L94.4,45.6 L94.9,46.2 L95.5,46.6 L96.3,46.8 L97.1,46.8 L97.8,46.4 L98.3,45.9 L98.7,45.2 L98.8,44.5 M98.8,76 L98.7,75.2 L98.3,74.5 L97.8,74 L97.1,73.7 L96.3,73.6 L95.5,73.8 L94.9,74.2 L94.4,74.8 L94.1,75.6 L94.1,76.4 L94.4,77.1 L94.9,77.7 L95.5,78.1 L96.3,78.3 L97.1,78.3 L97.8,77.9 L98.3,77.4 L98.7,76.7 L98.8,76 M206.8,44.5 L206.7,43.7 L206.3,43 L205.8,42.5 L205.1,42.2 L204.3,42.1 L203.5,42.3 L202.9,42.7 L202.4,43.3 L202.1,44.1 L202.1,44.9 L202.4,45.6 L202.9,46.2 L203.5,46.6 L204.3,46.8 L205.1,46.8 L205.8,46.4 L206.3,45.9 L206.7,45.2 L206.8,44.5 M206.8,76 L206.7,75.2 L206.3,74.5 L205.8,74 L205.1,73.7 L204.3,73.6 L203.5,73.8 L202.9,74.2 L202.4,74.8 L202.1,75.6 L202.1,76.4 L202.4,77.1 L202.9,77.7 L203.5,78.1 L204.3,78.3 L205.1,78.3 L205.8,77.9 L206.3,77.4 L206.7,76.7 L206.8,76 M247.3,53.5 L247.2,52.7 L246.8,52 L246.3,51.5 L245.6,51.2 L244.8,51.1 L244,51.3 L243.4,51.7 L242.9,52.3 L242.6,53.1 L242.6,53.9 L242.9,54.6 L243.4,55.2 L244,55.6 L244.8,55.8 L245.6,55.8 L246.3,55.4 L246.8,54.9 L247.2,54.2 L247.3,53.5 M211.3,53.5 L211.2,52.7 L210.8,52 L210.3,51.5 L209.6,51.2 L208.8,51.1 L208,51.3 L207.4,51.7 L206.9,52.3 L206.6,53.1 L206.6,53.9 L206.9,54.6 L207.4,55.2 L208,55.6 L208.8,55.8 L209.6,55.8 L210.3,55.4 L210.8,54.9 L211.2,54.2 L211.3,53.5 M175.3,53.5 L175.2,52.7 L174.8,52 L174.3,51.5 L173.6,51.2 L172.8,51.1 L172,51.3 L171.4,51.7 L170.9,52.3 L170.6,53.1 L170.6,53.9 L170.9,54.6 L171.4,55.2 L172,55.6 L172.8,55.8 L173.6,55.8 L174.3,55.4 L174.8,54.9 L175.2,54.2 L175.3,53.5 M103.3,53.5 L103.2,52.7 L102.8,52 L102.3,51.5 L101.6,51.2 L100.8,51.1 L100,51.3 L99.4,51.7 L98.9,52.3 L98.6,53.1 L98.6,53.9 L98.9,54.6 L99.4,55.2 L100,55.6 L100.8,55.8 L101.6,55.8 L102.3,55.4 L102.8,54.9 L103.2,54.2 L103.3,53.5 M202.3,89.5 L202.2,88.7 L201.8,88 L201.3,87.5 L200.6,87.2 L199.8,87.1 L199,87.3 L198.4,87.7 L197.9,88.3 L197.6,89.1 L197.6,89.9 L197.9,90.6 L198.4,91.2 L199,91.6 L199.8,91.8 L200.6,91.8 L201.3,91.4 L201.8,90.9 L202.2,90.2 L202.3,89.5 M31.3,53.5 L31.2,52.7 L30.8,52 L30.3,51.5 L29.6,51.2 L28.8,51.1 L28,51.3 L27.4,51.7 L26.9,52.3 L26.6,53.1 L26.6,53.9 L26.9,54.6 L27.4,55.2 L28,55.6 L28.8,55.8 L29.6,55.8 L30.3,55.4 L30.8,54.9 L31.2,54.2 L31.3,53.5 M130.3,89.5 L130.2,88.7 L129.8,88 L129.3,87.5 L128.6,87.2 L127.8,87.1 L127,87.3 L126.4,87.7 L125.9,88.3 L125.6,89.1 L125.6,89.9 L125.9,90.6 L126.4,91.2 L127,91.6 L127.8,91.8 L128.6,91.8 L129.3,91.4 L129.8,90.9 L130.2,90.2 L130.3,89.5 M92.9,78.2 L92.8,77.9 L92.6,77.6 L92.3,77.4 L92,77.3 L91.6,77.4 L91.3,77.6 L91.1,77.9 L91.1,78.2 L91.1,78.6 L91.3,78.8 L91.6,79 L92,79.1 L92.3,79 L92.6,78.8 L92.8,78.6 L92.9,78.2 M108.6,94 L108.6,93.6 L108.4,93.3 L108.1,93.1 L107.7,93.1 L107.4,93.1 L107.1,93.3 L106.9,93.6 L106.8,94 L106.9,94.3 L107.1,94.6 L107.4,94.8 L107.7,94.9 L108.1,94.8 L108.4,94.6 L108.6,94.3 L108.6,94 M117.2,94 L117.1,93.6 L116.9,93.3 L116.6,93.1 L116.3,93.1 L115.9,93.1 L115.6,93.3 L115.4,93.6 L115.4,94 L115.4,94.3 L115.6,94.6 L115.9,94.8 L116.3,94.9 L116.6,94.8 L116.9,94.6 L117.1,94.3 L117.2,94 M109.2,84.8 L109.1,83.9 L108.7,83.1 L108.2,82.3 L107.4,81.8 L106.5,81.5 L105.6,81.4 L104.7,81.6 L103.9,82 L103.2,82.7 L102.7,83.5 L102.4,84.4 L102.4,85.3 L102.7,86.2 L103.2,87 L103.9,87.6 L104.7,88 L105.6,88.2 L106.5,88.2 L107.4,87.9 L108.2,87.3 L108.7,86.6 L109.1,85.7 L109.2,84.8 M93.3,84.8 L93.2,83.9 L92.8,83.1 L92.2,82.3 L91.4,81.8 L90.6,81.5 L89.6,81.4 L88.7,81.6 L87.9,82 L87.2,82.7 L86.7,83.5 L86.5,84.4 L86.5,85.3 L86.7,86.2 L87.2,87 L87.9,87.6 L88.7,88 L89.6,88.2 L90.6,88.2 L91.4,87.9 L92.2,87.3 L92.8,86.6 L93.2,85.7 L93.3,84.8 M75.6,84.8 L75.4,83.9 L75.1,83.1 L74.5,82.3 L73.7,81.8 L72.8,81.5 L71.9,81.4 L71,81.6 L70.2,82 L69.5,82.7 L69,83.5 L68.8,84.4 L68.8,85.3 L69,86.2 L69.5,87 L70.2,87.6 L71,88 L71.9,88.2 L72.8,88.2 L73.7,87.9 L74.5,87.3 L75.1,86.6 L75.4,85.7 L75.6,84.8 M144.7,87.3 L144.5,86.4 L144.2,85.6 L143.6,84.9 L142.8,84.3 L141.9,84 L141,83.9 L140.1,84.1 L139.3,84.6 L138.6,85.2 L138.1,86 L137.9,86.9 L137.9,87.8 L138.1,88.7 L138.6,89.5 L139.3,90.1 L140.1,90.6 L141,90.7 L141.9,90.7 L142.8,90.4 L143.6,89.8 L144.2,89.1 L144.5,88.3 L144.7,87.3 M164.2,87.3 L164,86.4 L163.7,85.6 L163.1,84.9 L162.3,84.3 L161.4,84 L160.5,83.9 L159.6,84.1 L158.8,84.6 L158.1,85.2 L157.6,86 L157.4,86.9 L157.4,87.8 L157.6,88.7 L158.1,89.5 L158.8,90.1 L159.6,90.6 L160.5,90.7 L161.4,90.7 L162.3,90.4 L163.1,89.8 L163.7,89.1 L164,88.3 L164.2,87.3 M187.2,87.3 L187.1,86.4 L186.7,85.6 L186.1,84.9 L185.4,84.3 L184.5,84 L183.6,83.9 L182.6,84.1 L181.8,84.6 L181.1,85.2 L180.7,86 L180.4,86.9 L180.4,87.8 L180.7,88.7 L181.1,89.5 L181.8,90.1 L182.6,90.6 L183.6,90.7 L184.5,90.7 L185.4,90.4 L186.1,89.8 L186.7,89.1 L187.1,88.3 L187.2,87.3 M225.1,87 L225,86.2 L224.6,85.6 L224.1,85 L223.4,84.7 L222.6,84.7 L221.8,84.8 L221.2,85.3 L220.7,85.9 L220.4,86.6 L220.4,87.4 L220.7,88.1 L221.2,88.8 L221.8,89.2 L222.6,89.4 L223.4,89.3 L224.1,89 L224.6,88.5 L225,87.8 L225.1,87 M170.3,44.5 L170.1,43.8 L169.7,43.2 L169.2,42.8 L168.5,42.7 L167.8,42.8 L167.2,43.2 L166.8,43.8 L166.7,44.5 L166.8,45.2 L167.2,45.7 L167.8,46.1 L168.5,46.3 L169.2,46.1 L169.7,45.7 L170.1,45.2 L170.3,44.5 M170.3,89.5 L170.1,88.8 L169.7,88.2 L169.2,87.8 L168.5,87.7 L167.8,87.8 L167.2,88.2 L166.8,88.8 L166.7,89.5 L166.8,90.2 L167.2,90.7 L167.8,91.1 L168.5,91.3 L169.2,91.1 L169.7,90.7 L170.1,90.2 L170.3,89.5 M80.3,89.5 L80.1,88.8 L79.7,88.2 L79.2,87.8 L78.5,87.7 L77.8,87.8 L77.2,88.2 L76.8,88.8 L76.7,89.5 L76.8,90.2 L77.2,90.7 L77.8,91.1 L78.5,91.3 L79.2,91.1 L79.7,90.7 L80.1,90.2 L80.3,89.5 M80.3,44.5 L80.1,43.8 L79.7,43.2 L79.2,42.8 L78.5,42.7 L77.8,42.8 L77.2,43.2 L76.8,43.8 L76.7,44.5 L76.8,45.2 L77.2,45.7 L77.8,46.1 L78.5,46.3 L79.2,46.1 L79.7,45.7 L80.1,45.2 L80.3,44.5 M104.7,67 L104.6,65.8 L104.2,64.6 L103.5,63.6 L102.7,62.7 L101.7,62 L100.6,61.5 L99.4,61.3 L98.2,61.4 L97,61.7 L95.9,62.3 L95,63.1 L94.2,64.1 L93.7,65.2 L93.5,66.4 L93.5,67.6 L93.7,68.8 L94.2,69.9 L95,70.8 L95.9,71.6 L97,72.2 L98.2,72.5 L99.4,72.6 L100.6,72.4 L101.7,71.9 L102.7,71.2 L103.5,70.4 L104.2,69.3 L104.6,68.2 L104.7,67 M299,66.4 L297.5,66.3 L296.1,65.9 L294.8,65.2 L293.6,64.4 L292.7,63.3 L291.9,62 L291.4,60.7 L291.1,59.3 L291.1,57.8 L291.4,56.4 L291.9,55 L292.7,53.8 L293.6,52.7 L294.8,51.8 L296.1,51.2 L297.5,50.8 L299,50.7 M299,66.4 L300.4,66.3 L301.8,65.9 L303.1,65.2 L304.3,64.4 L305.3,63.3 L306,62 L306.6,60.7 L306.8,59.3 L306.8,57.8 L306.6,56.4 L306,55 L305.3,53.8 L304.3,52.7 L303.1,51.8 L301.8,51.2 L300.4,50.8 L299,50.7 M288.8,87.3 L289,85.8 L289.3,84.2 L289.9,82.8 L290.8,81.4 L291.8,80.2 L293,79.2 L294.4,78.3 L295.8,77.7 L297.4,77.3 L299,77.2 L300.6,77.3 L302.1,77.7 L303.6,78.3 L304.9,79.2 L306.1,80.2 L307.2,81.4 L308,82.8 L308.6,84.2 L309,85.8 L309.1,87.3 L309,88.9 L308.6,90.5 L308,91.9 L307.2,93.3 L306.1,94.5 L304.9,95.5 L303.6,96.4 L302.1,97 L300.6,97.3 L299,97.5 L297.4,97.3 L295.8,97 L294.4,96.4 L293,95.5 L291.8,94.5 L290.8,93.3 L289.9,91.9 L289.3,90.5 L289,88.9 L288.8,87.3 M569,96.2 L555.1,96.2 M362,96.2 L354.1,96.2 M29,96.2 L42.8,96.2 M236,96.2 L243.8,96.2" id="chassis" stroke="#4A4A4A" sketch:type="MSShapeGroup"></path>
        <g id="6wd_kop_long" sketch:type="MSLayerGroup" transform="translate(68.000000, 81.000000)">
            <g id="Oval-3" transform="translate(227.000000, 2.000000)" sketch:type="MSShapeGroup">
                <circle id="Oval-2" cx="4" cy="4" r="4"></circle>
            </g>
            <g id="Oval-4" sketch:type="MSShapeGroup">
                <circle id="Oval-2" cx="4" cy="4" r="4"></circle>
            </g>
            <g id="Oval-5" transform="translate(454.000000, 0.000000)" sketch:type="MSShapeGroup">
                <circle id="Oval-2" cx="4" cy="4" r="4"></circle>
            </g>
        </g>
        <g id="6wd_kop_short" sketch:type="MSLayerGroup" transform="translate(37.000000, 83.000000)">
            <text id="6WD-Kit-of-Parts-Sho" sketch:type="MSTextLayer" font-family="Helvetica Neue" font-size="24" font-style="italic" font-weight="260" fill="#000000">
                <tspan x="0" y="108">6WD Kit of Parts Short</tspan>
            </text>
            <circle id="Oval-2" stroke="#4A4A4A" sketch:type="MSShapeGroup" cx="263" cy="4" r="4"></circle>
            <circle id="Oval-2" stroke="#4A4A4A" sketch:type="MSShapeGroup" cx="105" cy="4" r="4"></circle>
            <circle id="Oval-2" stroke="#4A4A4A" sketch:type="MSShapeGroup" cx="421" cy="4" r="4"></circle>
        </g>
    </g>
</svg>